<?xml version="1.0" encoding="UTF-8" standalone="no"?>
<!-- Created with Inkscape (http://www.inkscape.org/) -->

<svg
   xmlns:dc="http://purl.org/dc/elements/1.1/"
   xmlns:cc="http://creativecommons.org/ns#"
   xmlns:rdf="http://www.w3.org/1999/02/22-rdf-syntax-ns#"
   xmlns:svg="http://www.w3.org/2000/svg"
   xmlns="http://www.w3.org/2000/svg"
   xmlns:xlink="http://www.w3.org/1999/xlink"
   xmlns:sodipodi="http://sodipodi.sourceforge.net/DTD/sodipodi-0.dtd"
   xmlns:inkscape="http://www.inkscape.org/namespaces/inkscape"
   width="700"
   height="400"
   id="svg2"
   version="1.1"
   inkscape:version="0.48.2 r9819"
   sodipodi:docname="battery.pdf">
  <defs
     id="defs4">
    <marker
       inkscape:stockid="Arrow1Lend"
       orient="auto"
       refY="0.0"
       refX="0.0"
       id="Arrow1Lend"
       style="overflow:visible;">
      <path
         id="path3977"
         d="M 0.0,0.0 L 5.0,-5.0 L -12.5,0.0 L 5.0,5.0 L 0.0,0.0 z "
         style="fill-rule:evenodd;stroke:#000000;stroke-width:1.0pt;marker-start:none;"
         transform="scale(0.8) rotate(180) translate(12.5,0)" />
    </marker>
    <marker
       inkscape:stockid="DotL"
       orient="auto"
       refY="0.0"
       refX="0.0"
       id="DotL"
       style="overflow:visible">
      <path
         id="path4036"
         d="M -2.5,-1.0 C -2.5,1.7600000 -4.7400000,4.0 -7.5,4.0 C -10.260000,4.0 -12.5,1.7600000 -12.5,-1.0 C -12.5,-3.7600000 -10.260000,-6.0 -7.5,-6.0 C -4.7400000,-6.0 -2.5,-3.7600000 -2.5,-1.0 z "
         style="fill-rule:evenodd;stroke:#000000;stroke-width:1.0pt;marker-start:none;marker-end:none"
         transform="scale(0.8) translate(7.4, 1)" />
    </marker>
    <marker
       inkscape:stockid="Arrow1Lstart"
       orient="auto"
       refY="0.0"
       refX="0.0"
       id="Arrow1Lstart"
       style="overflow:visible">
      <path
         id="path3974"
         d="M 0.0,0.0 L 5.0,-5.0 L -12.5,0.0 L 5.0,5.0 L 0.0,0.0 z "
         style="fill-rule:evenodd;stroke:#000000;stroke-width:1.0pt;marker-start:none"
         transform="scale(0.8) translate(12.5,0)" />
    </marker>
    <linearGradient
       inkscape:collect="always"
       id="linearGradient3877">
      <stop
         style="stop-color:#000000;stop-opacity:1;"
         offset="0"
         id="stop3879" />
      <stop
         style="stop-color:#000000;stop-opacity:0;"
         offset="1"
         id="stop3881" />
    </linearGradient>
    <linearGradient
       inkscape:collect="always"
       id="linearGradient3813">
      <stop
         style="stop-color:#000000;stop-opacity:1;"
         offset="0"
         id="stop3815" />
      <stop
         style="stop-color:#000000;stop-opacity:0;"
         offset="1"
         id="stop3817" />
    </linearGradient>
    <linearGradient
       inkscape:collect="always"
       xlink:href="#linearGradient3813"
       id="linearGradient3819"
       x1="80"
       y1="851.86218"
       x2="181"
       y2="851.86218"
       gradientUnits="userSpaceOnUse" />
    <linearGradient
       inkscape:collect="always"
       xlink:href="#linearGradient3877"
       id="linearGradient3883"
       x1="529"
       y1="846.86218"
       x2="630"
       y2="846.86218"
       gradientUnits="userSpaceOnUse" />
  </defs>
  <sodipodi:namedview
     id="base"
     pagecolor="#ffffff"
     bordercolor="#666666"
     borderopacity="1.0"
     inkscape:pageopacity="0.0"
     inkscape:pageshadow="2"
     inkscape:zoom="1.4142136"
     inkscape:cx="343.39311"
     inkscape:cy="161.63996"
     inkscape:document-units="px"
     inkscape:current-layer="layer1"
     showgrid="false"
     inkscape:window-width="1920"
     inkscape:window-height="963"
     inkscape:window-x="0"
     inkscape:window-y="0"
     inkscape:window-maximized="1">
    <inkscape:grid
       type="xygrid"
       id="grid2985"
       empspacing="5"
       visible="true"
       enabled="true"
       snapvisiblegridlinesonly="true" />
  </sodipodi:namedview>
  <metadata
     id="metadata7">
    <rdf:RDF>
      <cc:Work
         rdf:about="">
        <dc:format>image/svg+xml</dc:format>
        <dc:type
           rdf:resource="http://purl.org/dc/dcmitype/StillImage" />
        <dc:title></dc:title>
      </cc:Work>
    </rdf:RDF>
  </metadata>
  <g
     inkscape:label="Camada 1"
     inkscape:groupmode="layer"
     id="layer1"
     transform="translate(0,-652.36218)">
    <path
       style="fill:none;stroke:#000000;stroke-width:1px;stroke-linecap:butt;stroke-linejoin:miter;stroke-opacity:1"
       d="m 10,160 c 11.047947,-4.47603 21.637671,-9.18116 40,-10 20.322665,9.47597 30.83366,9.7298 40,10 31.83395,-5.01521 27.01733,-6.69854 40,-10 17.05111,-2.24332 26.67195,6.65874 40,10 26.41797,3.76342 26.67747,-6.66081 40,-10 24.31516,-2.15758 26.69294,6.65353 40,10 22.88177,3.03229 27.16151,-6.33677 40,-10 17.14186,-2.37946 26.66867,6.66367 40,10 23.40275,2.70832 26.66669,-6.66665 40,-10 22.0729,-0.16249 26.73895,6.63775 40,10 20.68243,4.01576 26.66667,-6.66667 40,-10 13.33333,-2.31867 26.66667,6.66667 40,10 16.27296,5.48555 26.66667,-6.66667 40,-10 24.1189,-0.26185 26.71051,6.65205 40,10 27.41619,1.36095 26.66667,-6.66667 40,-10 26.69435,-0.4841 26.67293,6.66488 40,10 22.63226,3.64086 26.66667,-6.66667 40,-10"
       id="path5267"
       inkscape:connector-curvature="0"
       transform="translate(0,652.36218)"
       sodipodi:nodetypes="cccccccccccccccccc" />
    <path
       style="fill:none;stroke:#000000;stroke-width:1px;stroke-linecap:butt;stroke-linejoin:miter;stroke-opacity:1"
       d="m 10,90 c 0,300 0,300 0,300 l 680,0 0,-300"
       id="path2987"
       inkscape:connector-curvature="0"
       transform="translate(0,652.36218)" />
    <rect
       style="fill:#333333;fill-opacity:1;stroke:#000000;stroke-width:1.01088976999999991;stroke-opacity:1"
       id="rect3907"
       width="100.00002"
       height="290.71429"
       x="530"
       y="702.36218"
       rx="8"
       ry="8" />
    <path
       style="fill:none;stroke:#000000;stroke-width:1px;stroke-linecap:butt;stroke-linejoin:miter;stroke-opacity:1"
       d="m 120,702.36218 c 0,-30 0,-30 0,-30 l 460,0 0,30"
       id="path3917"
       inkscape:connector-curvature="0" />
    <path
       style="fill:none;stroke:#000000;stroke-width:1px;stroke-linecap:butt;stroke-linejoin:miter;stroke-opacity:1;marker-start:url(#DotL);marker-end:url(#Arrow1Lstart)"
       d="m 400,732.36218 -90,0 0,0"
       id="path3919"
       inkscape:connector-curvature="0" />
    <rect
       style="fill:#e6e6e6;stroke:#000000;stroke-opacity:1;fill-opacity:1"
       id="rect3921"
       width="50"
       height="50"
       x="330"
       y="652.36218" />
    <path
       style="fill:none;stroke:#000000;stroke-width:1px;stroke-linecap:butt;stroke-linejoin:miter;stroke-opacity:1"
       d="m 340,20 c 17.32051,-10 30,0 30,0"
       id="path3923"
       inkscape:connector-curvature="0"
       transform="translate(0,652.36218)" />
    <path
       style="fill:none;stroke:#000000;stroke-width:1px;stroke-linecap:butt;stroke-linejoin:miter;stroke-opacity:1"
       d="M 355,25 365,10"
       id="path3925"
       inkscape:connector-curvature="0"
       transform="translate(0,652.36218)"
       sodipodi:nodetypes="cc" />
    <text
       xml:space="preserve"
       style="font-size:40.84461594px;font-style:normal;font-weight:normal;line-height:125%;letter-spacing:0px;word-spacing:0px;fill:#000000;fill-opacity:1;stroke:none;font-family:Sans"
       x="330.75143"
       y="726.9422"
       id="text3927"
       sodipodi:linespacing="125%"
       transform="scale(1.042417,0.95930903)"><tspan
         sodipodi:role="line"
         id="tspan3929"
         x="330.75143"
         y="726.9422"
         style="font-size:28.59123039px">V</tspan></text>
    <rect
       style="fill:#666666;fill-opacity:1;stroke:#000000;stroke-opacity:1"
       id="rect3897"
       width="100.71429"
       height="290.71429"
       x="70"
       y="50"
       transform="translate(0,652.36218)"
       rx="10"
       ry="10" />
    <text
       xml:space="preserve"
       style="font-size:40px;font-style:normal;font-weight:normal;line-height:125%;letter-spacing:0px;word-spacing:0px;fill:#ffffff;fill-opacity:1;stroke:none;font-family:Sans"
       x="-922.36218"
       y="135"
       id="text3959"
       sodipodi:linespacing="125%"
       transform="matrix(0,-1,1,0,0,0)"><tspan
         sodipodi:role="line"
         id="tspan3961"
         x="-922.36218"
         y="135">Cátodo</tspan></text>
    <text
       xml:space="preserve"
       style="font-size:40px;font-style:normal;font-weight:normal;line-height:125%;letter-spacing:0px;word-spacing:0px;fill:#ffffff;fill-opacity:1;stroke:none;font-family:Sans"
       x="-912.36218"
       y="600"
       id="text3963"
       sodipodi:linespacing="125%"
       transform="matrix(0,-1,1,0,0,0)"><tspan
         sodipodi:role="line"
         x="-912.36218"
         y="600"
         id="tspan3967">Ânodo</tspan></text>
    <text
       xml:space="preserve"
       style="font-size:40px;font-style:normal;font-weight:normal;line-height:125%;letter-spacing:0px;word-spacing:0px;fill:#000000;fill-opacity:1;stroke:none;font-family:Sans"
       x="385"
       y="767.36218"
       id="text4975"
       sodipodi:linespacing="125%"><tspan
         sodipodi:role="line"
         x="385"
         y="767.36218"
         id="tspan4981">e<tspan
   style="font-size:65.00091553%;baseline-shift:super"
   id="tspan4979">-</tspan></tspan></text>
    <text
       xml:space="preserve"
       style="font-size:40px;font-style:normal;font-weight:normal;line-height:125%;letter-spacing:0px;word-spacing:0px;fill:#000000;fill-opacity:1;stroke:none;font-family:Sans"
       x="585"
       y="682.36218"
       id="text5011"
       sodipodi:linespacing="125%"><tspan
         sodipodi:role="line"
         id="tspan5013"
         x="585"
         y="682.36218">-</tspan></text>
    <text
       xml:space="preserve"
       style="font-size:40px;font-style:normal;font-weight:normal;line-height:125%;letter-spacing:0px;word-spacing:0px;fill:#000000;fill-opacity:1;stroke:none;font-family:Sans"
       x="85"
       y="682.36218"
       id="text5015"
       sodipodi:linespacing="125%"><tspan
         sodipodi:role="line"
         id="tspan5017"
         x="85"
         y="682.36218">+</tspan></text>
    <text
       xml:space="preserve"
       style="font-size:40px;font-style:normal;font-weight:normal;line-height:125%;letter-spacing:0px;word-spacing:0px;fill:#ffffff;fill-opacity:1;stroke:none;font-family:Sans"
       x="240"
       y="1012.3622"
       id="text5135"
       sodipodi:linespacing="125%"><tspan
         sodipodi:role="line"
         id="tspan5137"
         x="240"
         y="1012.3622"
         style="font-weight:bold;-inkscape-font-specification:Sans Bold;fill:#000000">Eletrólito</tspan></text>
  </g>
</svg>
